<svg xmlns="http://www.w3.org/2000/svg" width="262.32" height="29.2" viewBox="0 0 262.32 29.2">
  <g id="header-logo" transform="translate(-541.633 -42.4)">
    <path id="images_header_logo.svg" data-name="images/header/logo.svg" d="M652.532,68.54a10.747,10.747,0,0,1-2.979-7.82A10.738,10.738,0,0,1,652.493,53a10.861,10.861,0,0,1,14.581-.52q3.679,3.36,3.6,9.959H655.953a5.793,5.793,0,0,0,1.48,3.3,4.177,4.177,0,0,0,3.12,1.181,3.352,3.352,0,0,0,3.4-2.04h6.36a8.1,8.1,0,0,1-3.44,4.84,10.862,10.862,0,0,1-6.4,1.88A10.58,10.58,0,0,1,652.532,68.54Zm3.461-9.981h8.08a4.591,4.591,0,0,0-1.22-2.92,3.571,3.571,0,0,0-2.659-1.079Q656.713,54.56,655.993,58.559Zm80.16,11.321a5.721,5.721,0,0,1-1.92-4.6,5.1,5.1,0,0,1,2.079-4.54,13.244,13.244,0,0,1,5.761-1.9,17.787,17.787,0,0,0,4.1-.82,1.534,1.534,0,0,0,1.1-1.461q0-2.2-2.8-2.2-3,0-3.32,2.641h-6a6.67,6.67,0,0,1,2.5-5.04q2.379-2,6.78-2t6.64,1.68q2.6,1.881,2.6,5.84V67.8q0,2.441.721,2.92V71h-6.321a6.074,6.074,0,0,1-.68-2.28h-.08a6.913,6.913,0,0,1-6.08,2.8A7.551,7.551,0,0,1,736.153,69.88Zm7.92-7.56a7.628,7.628,0,0,0-2.76,1.039,2.022,2.022,0,0,0-.8,1.72q0,2.28,2.8,2.281a4.3,4.3,0,0,0,2.98-1.021,3.4,3.4,0,0,0,1.139-2.66V61.239A18.368,18.368,0,0,1,744.073,62.32Zm-149.04,7.56a5.724,5.724,0,0,1-1.92-4.6,5.1,5.1,0,0,1,2.08-4.54,13.235,13.235,0,0,1,5.759-1.9,17.787,17.787,0,0,0,4.1-.82,1.535,1.535,0,0,0,1.1-1.461q0-2.2-2.8-2.2-3,0-3.32,2.641h-6a6.676,6.676,0,0,1,2.5-5.04q2.379-2,6.78-2t6.64,1.68q2.6,1.881,2.6,5.84V67.8q0,2.441.72,2.92V71h-6.32a6.037,6.037,0,0,1-.68-2.28h-.08a6.912,6.912,0,0,1-6.08,2.8A7.55,7.55,0,0,1,595.033,69.88Zm7.92-7.56a7.628,7.628,0,0,0-2.76,1.039,2.02,2.02,0,0,0-.8,1.72q0,2.28,2.8,2.281a4.3,4.3,0,0,0,2.98-1.021,3.4,3.4,0,0,0,1.14-2.66V61.239A18.344,18.344,0,0,1,602.953,62.32ZM797.432,71V58.839q0-3.48-2.879-3.48a2.815,2.815,0,0,0-2.381,1.14,4.889,4.889,0,0,0-.859,3.02V71h-6.52V58.839q0-3.48-2.879-3.48a2.813,2.813,0,0,0-2.38,1.14,4.884,4.884,0,0,0-.86,3.02V71h-6.52V50.52h6.24v2.92h.12a6.814,6.814,0,0,1,6.2-3.52,5.921,5.921,0,0,1,5.76,3.6h.08a7.27,7.27,0,0,1,6.44-3.6,6.413,6.413,0,0,1,5.18,2.1,8.471,8.471,0,0,1,1.779,5.66V71Zm-40.6,0V50.52h6.24v3.2h.12a6.3,6.3,0,0,1,5.6-3.52,3.558,3.558,0,0,1,1.281.159v5.6h-.16a5.8,5.8,0,0,0-4.8,1.06q-1.762,1.5-1.76,4.779V71Zm-45.32,0V42.4h21.28v5.96h-14.2v5.8h11.88v5.72h-11.88V71Zm-16.24,0V50.52h6.52V71Zm-9.08,0-4.92-8.36-1.959,2.08V71h-6.44V42.4h6.44V57.439l6.079-6.919h7.52l-7.2,7.68L693.753,71Zm-45.2,0V58.839q0-3.48-2.88-3.48a2.813,2.813,0,0,0-2.38,1.14,4.889,4.889,0,0,0-.86,3.02V71h-6.52V58.839q0-3.48-2.88-3.48a2.811,2.811,0,0,0-2.38,1.14,4.883,4.883,0,0,0-.86,3.02V71h-6.52V50.52h6.24v2.92h.12a6.814,6.814,0,0,1,6.2-3.52,5.923,5.923,0,0,1,5.761,3.6h.079a7.27,7.27,0,0,1,6.439-3.6,6.411,6.411,0,0,1,5.18,2.1,8.466,8.466,0,0,1,1.78,5.66V71Zm-62.24,0V50.52h6.24v3.2h.121a6.3,6.3,0,0,1,5.6-3.52,3.556,3.556,0,0,1,1.28.159v5.6h-.159a5.8,5.8,0,0,0-4.8,1.06q-1.76,1.5-1.76,4.779V71Zm-9.64,0V50.52h6.52V71Zm-9.76,0-8.24-12.36-2.4,2.52V71h-7.081V42.4h7.081V52.759l9.84-10.359h8.4l-10.96,11.479L567.593,71Zm135.92-23.32V42.4h6.52v5.279Zm-126.16,0V42.4h6.52v5.279Z" fill="#168352"/>
  </g>
</svg>
